<?xml version="1.0" encoding="UTF-8" standalone="no"?>
<!DOCTYPE svg PUBLIC "-//W3C//DTD SVG 1.1//EN" "http://www.w3.org/Graphics/SVG/1.1/DTD/svg11.dtd">
<svg xmlns="http://www.w3.org/2000/svg" version="1.1" viewBox="0.00 0.00 500.00 500.00">
    <path fill="#8bc349" d="
  M 162.73 135.41
  C 162.49 141.33 163.85 148.09 165.55 154.79
  Q 166.36 157.97 164.06 155.63
  C 154.82 146.25 153.52 134.83 160.37 123.13
  Q 160.93 122.15 161.80 122.88
  Q 178.53 136.99 170.38 154.56
  Q 169.21 157.09 168.81 154.33
  Q 167.20 143.10 163.65 135.23
  Q 162.82 133.38 162.73 135.41
  Z"
    />
    <path fill="#8bc349" d="
  M 123.76 147.83
  Q 123.71 148.16 124.21 148.55
  C 133.51 155.91 144.71 161.48 155.70 166.44
  Q 156.49 166.80 157.17 167.31
  A 0.86 0.86 0.0 0 1 156.78 168.85
  C 132.38 172.61 113.69 161.27 105.54 138.03
  Q 105.34 137.46 105.92 137.30
  Q 119.10 133.53 130.55 135.85
  C 143.97 138.58 154.33 147.79 160.34 159.99
  Q 162.03 163.42 158.70 161.54
  C 148.23 155.63 136.40 149.89 124.44 147.36
  A 0.57 0.57 0.0 0 0 123.76 147.83
  Z"
    />
    <path fill="#006837" d="
  M 276.38 181.03
  Q 275.00 180.88 274.00 181.84
  L 244.08 210.78
  Q 241.27 213.50 244.06 216.24
  Q 251.60 223.66 260.34 232.20
  C 262.20 234.01 262.62 235.89 260.44 237.74
  Q 259.80 238.29 258.95 238.29
  Q 250.39 238.35 242.43 238.28
  Q 241.83 238.27 241.41 237.86
  L 183.95 181.97
  A 3.45 3.45 0.0 0 0 179.14 181.97
  L 122.21 237.42
  A 3.06 3.04 -67.1 0 1 120.08 238.29
  Q 112.23 238.32 104.47 238.32
  Q 103.02 238.32 102.05 237.18
  C 100.38 235.21 101.55 233.35 103.11 231.84
  Q 141.76 194.32 179.40 157.62
  A 3.04 3.03 44.9 0 1 183.63 157.61
  Q 205.36 178.60 226.55 199.19
  C 228.25 200.85 229.82 200.54 231.47 198.92
  Q 232.70 197.71 233.97 196.47
  Q 254.80 176.27 273.91 157.86
  Q 276.29 155.57 278.66 157.88
  Q 316.18 194.50 353.72 230.88
  Q 355.86 232.95 356.06 233.30
  C 357.06 234.99 356.22 238.29 353.78 238.30
  Q 345.93 238.35 337.24 238.30
  Q 336.54 238.29 336.03 237.80
  Q 307.21 209.91 278.96 182.25
  Q 277.89 181.19 276.38 181.03
  Z"
    />
    <path fill="#8bc349" d="
  M 355.61 200.20
  C 352.64 206.07 351.43 213.20 350.15 219.96
  Q 349.95 221.03 349.45 220.05
  C 343.14 207.56 346.82 195.42 357.86 187.24
  Q 358.33 186.90 358.64 187.39
  C 366.03 198.97 364.67 212.02 353.87 221.22
  A 0.18 0.17 58.9 0 1 353.59 221.15
  Q 353.41 220.70 353.53 220.25
  Q 356.20 210.09 356.69 200.49
  Q 356.83 197.80 355.61 200.20
  Z"
    />
    <path fill="#8bc349" d="
  M 395.16 212.63
  A 0.55 0.55 0.0 0 0 394.50 212.14
  C 382.59 214.54 370.74 220.45 360.23 226.33
  Q 357.35 227.94 358.80 224.97
  C 366.91 208.33 382.33 198.13 401.20 199.62
  Q 406.95 200.07 412.94 201.78
  A 1.01 1.00 17.3 0 1 413.62 203.07
  C 405.76 225.59 386.12 237.78 362.46 233.41
  A 0.78 0.77 7.3 0 1 361.83 232.61
  Q 361.83 232.46 361.87 232.32
  A 1.08 1.08 0.0 0 1 362.49 231.57
  C 373.69 226.67 385.35 220.86 394.89 213.25
  Q 395.19 213.01 395.16 212.63
  Z"
    />
    <rect fill="#006837" x="-4.75" y="-4.72" transform="translate(175.00,205.82) rotate(-0.1)" width="9.50"
          height="9.44" rx="1.13"/>
    <rect fill="#006837" x="-4.87" y="-4.72" transform="translate(188.12,205.82) rotate(0.1)" width="9.74" height="9.44"
          rx="1.36"/>
    <rect fill="#006837" x="-4.86" y="-4.73" transform="translate(270.37,205.83) rotate(-0.1)" width="9.72"
          height="9.46" rx="1.36"/>
    <rect fill="#006837" x="278.76" y="201.10" width="9.48" height="9.44" rx="1.13"/>
    <rect fill="#006837" x="-4.75" y="-4.87" transform="translate(174.99,218.37) rotate(-0.1)" width="9.50"
          height="9.74" rx="1.21"/>
    <rect fill="#006837" x="-4.87" y="-4.87" transform="translate(188.12,218.36) rotate(-0.2)" width="9.74"
          height="9.74" rx="1.56"/>
    <rect fill="#006837" x="265.52" y="213.50" width="9.70" height="9.72" rx="1.47"/>
    <rect fill="#006837" x="-4.74" y="-4.84" transform="translate(283.49,218.35) rotate(-0.1)" width="9.48"
          height="9.68" rx="1.13"/>
    <path fill="#006837" d="
  M 227.06 284.21
  C 228.49 300.23 220.88 317.07 202.22 314.99
  C 175.88 312.06 177.67 262.79 205.59 262.88
  C 217.99 262.92 226.01 272.37 227.06 284.21
  Z
  M 194.60 275.50
  Q 191.28 288.38 194.64 301.83
  C 195.82 306.57 198.92 312.35 204.19 313.18
  C 212.47 314.47 216.12 304.46 217.12 298.22
  C 218.50 289.57 219.58 265.05 205.76 264.82
  C 199.86 264.72 195.99 270.10 194.60 275.50
  Z"
    />
    <path fill="#006837" d="
  M 290.28 310.87
  C 295.67 314.00 303.45 314.19 308.37 310.79
  C 313.33 307.37 312.40 301.50 307.80 298.42
  Q 302.25 294.71 295.45 291.85
  C 279.36 285.07 282.76 262.45 301.50 262.87
  C 307.20 263.00 313.77 265.20 314.92 271.36
  C 316.59 280.34 303.95 280.25 304.81 272.67
  Q 305.22 269.04 308.83 268.30
  Q 310.61 267.93 309.04 267.01
  C 304.32 264.22 295.33 263.41 292.06 268.45
  Q 289.47 272.44 291.60 276.74
  C 292.85 279.28 296.12 281.13 298.65 282.35
  C 306.32 286.05 316.56 289.31 317.19 299.51
  C 317.83 309.77 309.98 315.24 300.46 315.24
  C 294.33 315.24 285.74 313.72 284.51 306.70
  C 283.13 298.88 294.24 297.67 294.75 304.66
  Q 295.08 309.29 290.39 310.21
  Q 289.45 310.39 290.28 310.87
  Z"
    />
    <path fill="#006837" d="
  M 163.14 289.46
  L 145.02 289.48
  A 0.33 0.33 0.0 0 0 144.69 289.81
  L 144.66 311.74
  A 0.33 0.33 0.0 0 0 144.97 312.07
  L 149.70 312.37
  A 0.33 0.33 0.0 0 1 150.01 312.70
  L 149.99 313.67
  A 0.33 0.33 0.0 0 1 149.66 314.00
  L 130.51 313.99
  A 0.33 0.33 0.0 0 1 130.18 313.66
  L 130.18 312.76
  A 0.33 0.33 0.0 0 1 130.48 312.43
  L 135.40 312.04
  A 0.33 0.33 0.0 0 0 135.70 311.71
  L 135.71 266.36
  A 0.33 0.33 0.0 0 0 135.40 266.03
  L 130.54 265.66
  A 0.33 0.33 0.0 0 1 130.23 265.31
  L 130.31 264.35
  A 0.33 0.33 0.0 0 1 130.64 264.05
  L 149.69 264.03
  A 0.33 0.33 0.0 0 1 150.02 264.38
  L 149.97 265.38
  A 0.33 0.33 0.0 0 1 149.67 265.69
  L 144.96 266.04
  A 0.33 0.33 0.0 0 0 144.65 266.37
  L 144.67 286.97
  A 0.33 0.33 0.0 0 0 145.00 287.30
  L 163.14 287.04
  A 0.33 0.33 0.0 0 0 163.47 286.71
  L 163.48 266.34
  A 0.33 0.33 0.0 0 0 163.17 266.01
  L 158.40 265.69
  A 0.33 0.33 0.0 0 1 158.10 265.39
  L 158.01 264.40
  A 0.33 0.33 0.0 0 1 158.34 264.04
  L 177.51 264.05
  A 0.33 0.33 0.0 0 1 177.84 264.38
  L 177.83 265.35
  A 0.33 0.33 0.0 0 1 177.53 265.68
  L 172.75 266.03
  A 0.33 0.33 0.0 0 0 172.44 266.36
  L 172.45 311.75
  A 0.33 0.33 0.0 0 0 172.76 312.08
  L 177.55 312.43
  A 0.33 0.33 0.0 0 1 177.86 312.76
  L 177.85 313.66
  A 0.33 0.33 0.0 0 1 177.52 313.99
  L 158.29 314.00
  A 0.33 0.33 0.0 0 1 157.97 313.61
  L 158.14 312.64
  A 0.33 0.33 0.0 0 1 158.45 312.37
  L 163.16 312.10
  A 0.33 0.33 0.0 0 0 163.47 311.77
  L 163.47 289.79
  A 0.33 0.33 0.0 0 0 163.14 289.46
  Z"
    />
    <path fill="#006837" d="
  M 273.81 266.63
  Q 273.64 279.70 273.84 294.32
  C 274.00 306.13 270.99 315.44 257.16 315.20
  C 245.21 314.99 237.78 311.15 237.79 298.13
  Q 237.79 281.94 237.81 266.59
  Q 237.81 266.05 237.27 266.01
  L 232.81 265.68
  A 0.49 0.49 0.0 0 1 232.35 265.17
  L 232.36 264.87
  Q 232.38 264.03 233.22 264.03
  L 251.55 264.05
  A 0.68 0.67 89.6 0 1 252.22 264.72
  L 252.23 265.10
  Q 252.25 265.66 251.69 265.69
  L 247.27 266.00
  Q 246.71 266.04 246.71 266.61
  Q 246.89 281.07 246.69 295.27
  C 246.55 305.21 247.82 313.52 260.09 312.70
  C 270.80 311.98 271.43 302.44 271.45 294.09
  Q 271.50 280.17 271.49 266.56
  Q 271.49 266.05 270.99 266.01
  L 266.57 265.70
  Q 266.06 265.66 266.07 265.15
  L 266.08 264.85
  Q 266.10 264.02 266.93 264.02
  L 278.51 264.03
  A 0.62 0.62 0.0 0 1 279.13 264.65
  L 279.13 265.07
  Q 279.13 265.66 278.54 265.71
  L 274.41 266.00
  Q 273.81 266.04 273.81 266.63
  Z"
    />
    <path fill="#006837" d="
  M 327.70 311.43
  L 327.71 266.50
  Q 327.71 266.04 327.25 266.01
  L 322.76 265.71
  A 0.57 0.57 0.0 0 1 322.23 265.08
  L 322.27 264.68
  Q 322.33 264.04 322.97 264.04
  L 356.29 264.05
  Q 356.79 264.05 356.80 264.54
  L 357.09 277.98
  Q 357.09 278.30 356.77 278.30
  L 355.99 278.30
  Q 355.56 278.30 355.51 277.87
  C 353.99 266.29 347.44 265.10 337.25 266.34
  Q 336.68 266.41 336.68 266.98
  L 336.67 286.51
  Q 336.67 287.14 337.30 287.19
  C 343.25 287.69 347.57 286.62 347.19 279.45
  A 0.58 0.58 0.0 0 1 347.80 278.83
  L 348.74 278.87
  Q 349.22 278.90 349.22 279.38
  L 349.22 296.98
  Q 349.22 297.68 348.52 297.72
  L 347.97 297.75
  A 0.70 0.69 -0.8 0 1 347.24 297.05
  C 347.31 289.73 343.48 288.78 337.23 289.22
  Q 336.69 289.26 336.69 289.80
  L 336.67 311.06
  Q 336.67 311.68 337.29 311.73
  Q 344.54 312.39 348.72 311.73
  C 354.79 310.78 355.69 305.54 356.99 300.38
  Q 357.11 299.90 357.56 299.68
  Q 357.84 299.54 358.10 299.66
  Q 358.58 299.88 358.56 300.40
  L 358.21 313.53
  A 0.49 0.49 0.0 0 1 357.72 314.00
  L 322.98 314.00
  Q 322.22 314.00 322.15 313.24
  L 322.11 312.86
  A 0.42 0.42 0.0 0 1 322.50 312.41
  L 327.07 312.11
  Q 327.70 312.07 327.70 311.43
  Z"
    />
    <path fill="#006837" d="
  M 200.31 352.76
  C 202.03 356.90 209.27 356.93 211.38 353.37
  Q 212.33 351.78 212.30 349.49
  Q 212.20 342.30 212.27 334.95
  Q 212.27 334.51 212.71 334.48
  L 214.29 334.36
  A 0.65 0.65 0.0 0 1 214.99 335.01
  Q 215.02 342.17 215.01 349.80
  C 215.00 361.07 197.23 361.42 197.05 350.04
  Q 196.93 342.50 197.02 334.91
  Q 197.03 334.41 197.53 334.42
  L 199.28 334.48
  Q 199.73 334.49 199.74 334.94
  Q 199.80 341.84 199.72 349.56
  Q 199.70 351.29 200.31 352.76
  Z"
    />
    <path fill="#006837" d="
  M 227.22 348.08
  L 221.11 357.84
  A 0.31 0.31 0.0 0 1 220.85 357.98
  L 218.67 358.01
  A 0.31 0.31 0.0 0 1 218.41 357.54
  L 225.86 345.85
  A 0.31 0.31 0.0 0 0 225.86 345.51
  L 218.93 334.89
  A 0.31 0.31 0.0 0 1 219.19 334.41
  L 221.50 334.43
  A 0.31 0.31 0.0 0 1 221.76 334.57
  L 227.28 343.32
  A 0.31 0.31 0.0 0 0 227.80 343.32
  L 233.34 334.63
  A 0.31 0.31 0.0 0 1 233.59 334.48
  L 235.80 334.40
  A 0.31 0.31 0.0 0 1 236.07 334.88
  L 229.17 345.42
  A 0.31 0.31 0.0 0 0 229.17 345.76
  L 236.64 357.54
  A 0.31 0.31 0.0 0 1 236.37 358.02
  L 233.95 357.95
  A 0.31 0.31 0.0 0 1 233.69 357.81
  L 227.75 348.09
  A 0.31 0.31 0.0 0 0 227.22 348.08
  Z"
    />
    <path fill="#006837" d="
  M 242.74 349.83
  C 242.71 358.19 254.99 357.35 255.16 351.26
  Q 255.35 344.21 255.22 335.02
  Q 255.21 334.50 255.73 334.46
  L 257.29 334.35
  A 0.64 0.64 0.0 0 1 257.98 334.98
  Q 258.09 343.28 257.95 350.31
  C 257.72 361.04 239.96 361.51 239.99 349.38
  Q 240.01 341.93 240.00 334.87
  Q 240.00 334.38 240.49 334.40
  L 242.27 334.48
  Q 242.74 334.50 242.74 334.97
  Q 242.76 342.58 242.74 349.83
  Z"
    />
    <path fill="#006837" d="
  M 183.18 355.50
  L 192.64 355.49
  A 0.44 0.44 0.0 0 1 193.08 355.91
  L 193.14 357.52
  A 0.44 0.44 0.0 0 1 192.70 357.98
  L 180.43 358.01
  A 0.44 0.44 0.0 0 1 179.99 357.57
  L 180.00 334.85
  A 0.44 0.44 0.0 0 1 180.46 334.41
  L 182.33 334.47
  A 0.44 0.44 0.0 0 1 182.75 334.91
  L 182.74 355.06
  A 0.44 0.44 0.0 0 0 183.18 355.50
  Z"
    />
    <path fill="#006837" d="
  M 274.78 347.98
  L 280.53 357.48
  Q 280.83 357.99 280.24 357.99
  L 278.22 357.99
  A 1.09 1.06 -15.0 0 1 277.29 357.47
  L 272.22 348.77
  Q 271.90 348.22 271.27 348.22
  L 267.53 348.20
  Q 267.00 348.19 267.00 348.72
  L 266.99 357.76
  Q 266.99 358.01 266.74 358.00
  L 264.59 357.96
  Q 264.23 357.95 264.23 357.59
  L 264.22 335.02
  Q 264.21 334.50 264.73 334.48
  Q 269.39 334.25 273.33 334.69
  C 280.42 335.49 281.33 344.66 275.09 347.05
  Q 274.38 347.33 274.78 347.98
  Z
  M 266.97 337.11
  L 267.03 345.59
  A 0.26 0.26 0.0 0 0 267.29 345.85
  L 271.88 345.82
  A 4.45 4.01 -0.4 0 0 276.30 341.78
  L 276.30 340.80
  A 4.45 4.01 -0.4 0 0 271.82 336.82
  L 267.23 336.85
  A 0.26 0.26 0.0 0 0 266.97 337.11
  Z"
    />
    <path fill="#006837" d="
  M 291.14 345.44
  L 296.77 334.91
  Q 297.03 334.42 297.59 334.43
  L 299.31 334.45
  Q 299.93 334.46 299.64 335.01
  Q 296.38 341.08 292.83 347.50
  C 291.53 349.85 292.15 354.69 292.12 357.44
  Q 292.11 358.01 291.55 358.00
  L 289.95 357.98
  Q 289.32 357.98 289.31 357.35
  C 289.27 354.54 289.96 349.99 288.56 347.47
  Q 284.92 340.89 281.83 335.06
  Q 281.49 334.42 282.22 334.43
  L 283.98 334.47
  Q 284.53 334.48 284.79 334.97
  L 290.31 345.44
  Q 290.73 346.22 291.14 345.44
  Z"
    />
</svg>
